<svg width="10" height="21" viewBox="0 0 10 21" fill="none" xmlns="http://www.w3.org/2000/svg">
<path fill-rule="evenodd" clip-rule="evenodd" d="M4.59998 20.1108C4.35101 20.0052 4.07795 20.0058 3.82081 19.9283C2.29859 19.4693 1.23385 18.5064 0.622811 17.0433C0.366446 16.4295 0.277338 15.7823 0.277648 15.1192C0.279457 11.5183 0.271342 7.91742 0.281938 4.31663C0.286383 2.79907 0.989474 1.69505 2.3511 1.02012C2.65156 0.871163 2.97537 0.785829 3.30854 0.739569C3.34829 0.734039 3.39972 0.756057 3.42489 0.702148C3.67758 0.702148 3.93033 0.702148 4.18303 0.702148C4.31844 0.774044 4.47268 0.75921 4.61647 0.796735C6.28093 1.23116 7.33063 2.58085 7.33285 4.31043C7.33621 6.87522 7.33394 9.43995 7.33363 12.0047C7.33357 12.529 7.34117 13.0536 7.32892 13.5776C7.3021 14.7188 6.40322 15.6157 5.21825 15.6957C4.15439 15.7676 3.1449 14.954 2.9625 13.8831C2.93578 13.7261 2.92808 13.5696 2.92803 13.4119C2.92756 10.7081 2.92911 8.00436 2.92399 5.30064C2.92368 5.14078 2.96741 5.10036 3.12319 5.10677C3.43853 5.11984 3.75516 5.12015 4.0704 5.10666C4.22763 5.09994 4.25466 5.15561 4.25451 5.29857C4.25053 7.98968 4.25265 10.6807 4.24986 13.3718C4.2496 13.633 4.29291 13.8719 4.47061 14.0746C4.70418 14.3409 5.07596 14.4397 5.41771 14.3221C5.75398 14.2063 5.98208 13.9109 6.00456 13.561C6.00823 13.5043 6.00973 13.4474 6.00973 13.3906C6.00999 10.3646 6.01107 7.33874 6.00931 4.31281C6.00869 3.26662 5.42939 2.44471 4.48322 2.13454C3.09446 1.67928 1.62051 2.70531 1.60987 4.16705C1.59204 6.61162 1.60387 9.05644 1.60341 11.5012C1.6032 12.7457 1.59746 13.9902 1.60485 15.2346C1.61529 16.985 2.8046 18.4122 4.5056 18.7296C6.45795 19.094 8.36131 17.7151 8.62207 15.7514C8.65049 15.5374 8.65763 15.3239 8.65763 15.1093C8.65809 11.8497 8.65975 8.59007 8.65328 5.33041C8.65292 5.14512 8.69892 5.09653 8.88065 5.10615C9.18932 5.12248 9.49981 5.11845 9.80889 5.10713C9.94999 5.10196 9.98711 5.13886 9.98648 5.28276C9.98044 6.67881 9.98287 8.07491 9.98287 9.47102C9.98287 11.3598 9.98493 13.2486 9.98225 15.1375C9.97982 16.8372 9.30655 18.2052 7.93215 19.2126C7.2684 19.6991 6.51641 19.9749 5.69956 20.0746C5.66059 20.0794 5.60818 20.0514 5.58554 20.1108C5.25707 20.1108 4.9285 20.1108 4.59998 20.1108Z" fill="black"/>
</svg>
