<svg width="46" height="46" viewBox="0 0 46 46" fill="none" xmlns="http://www.w3.org/2000/svg">
<path d="M33.6168 31.9698L30.0769 28.4227V23.7239C30.0729 20.4767 28.8673 17.3463 26.6934 14.9381C24.5195 12.5299 21.5317 11.015 18.3077 10.6862V8H15.6923V10.6862C12.4683 11.015 9.48046 12.5299 7.30656 14.9381C5.13266 17.3463 3.92713 20.4767 3.92308 23.7239V28.4227L0.383154 31.9698C0.137897 32.2155 7.40643e-05 32.5487 0 32.8962V36.8272C0 37.1747 0.137774 37.508 0.383014 37.7537C0.628254 37.9994 0.960871 38.1375 1.30769 38.1375H10.4615V39.1556C10.4331 40.8179 11.0178 42.4323 12.1037 43.6894C13.1896 44.9465 14.7002 45.7578 16.3462 45.968C17.2552 46.0583 18.1731 45.957 19.0408 45.6705C19.9084 45.3841 20.7066 44.9188 21.3841 44.3047C22.0615 43.6906 22.6032 42.9412 22.9742 42.1047C23.3452 41.2682 23.5374 40.3632 23.5385 39.4478V38.1375H32.6923C33.0391 38.1375 33.3717 37.9994 33.617 37.7537C33.8622 37.508 34 37.1747 34 36.8272V32.8962C33.9999 32.5487 33.8621 32.2155 33.6168 31.9698ZM20.9231 39.4478C20.9231 40.4904 20.5098 41.4902 19.774 42.2274C19.0383 42.9646 18.0405 43.3788 17 43.3788C15.9595 43.3788 14.9617 42.9646 14.226 42.2274C13.4902 41.4902 13.0769 40.4904 13.0769 39.4478V38.1375H20.9231V39.4478ZM31.3846 35.5168H2.61538V33.4387L6.15531 29.8916C6.40056 29.6459 6.53839 29.3127 6.53846 28.9652V23.7239C6.53846 20.9437 7.64066 18.2775 9.60257 16.3116C11.5645 14.3457 14.2254 13.2413 17 13.2413C19.7746 13.2413 22.4355 14.3457 24.3974 16.3116C26.3593 18.2775 27.4615 20.9437 27.4615 23.7239V28.9652C27.4616 29.3127 27.5994 29.6459 27.8447 29.8916L31.3846 33.4387V35.5168Z" fill="#3E7EDE"/>
<circle cx="37" cy="9" r="9" fill="#2D80E0"/>
<path d="M34.47 10.58V9.48L37.74 4.8H39.37V9.36H40.25V10.58H39.37V12H37.97V10.58H34.47ZM38.06 6.3L36.01 9.36H38.06V6.3Z" fill="white"/>
</svg>
