<svg width="40" height="39" viewBox="0 0 40 39" fill="none" xmlns="http://www.w3.org/2000/svg">
<circle cx="20.0646" cy="19.4064" r="19.4064" fill="#FF0051"/>
<rect x="31.8242" y="19.4065" width="16.6342" height="16.6341" transform="rotate(135 31.8242 19.4065)" fill="white" fill-opacity="0.01"/>
<mask id="mask0_1355_2032" style="mask-type:luminance" maskUnits="userSpaceOnUse" x="8" y="7" width="24" height="25">
<rect x="31.8242" y="19.4065" width="16.6342" height="16.6341" transform="rotate(135 31.8242 19.4065)" fill="white"/>
</mask>
<g mask="url(#mask0_1355_2032)">
<path fill-rule="evenodd" clip-rule="evenodd" d="M28.608 22.6227C28.3484 22.7863 28.0739 22.9062 27.7593 22.8975C27.4034 22.8878 27.0973 22.7576 26.8387 22.5122C26.3081 22.0084 25.7492 21.5395 25.1223 21.1582C24.8593 20.9984 24.5859 20.8555 24.3223 20.6965C23.9291 20.4596 23.7289 20.1045 23.6719 19.6501C23.577 18.8932 23.4669 18.1382 23.357 17.3833C23.3507 17.3399 23.2966 17.2818 23.2531 17.2686C21.5693 16.7541 19.8632 16.5857 18.1263 16.9602C17.7143 17.0491 17.3074 17.161 16.8968 17.2563C16.8009 17.2786 16.7698 17.3261 16.7574 17.4202C16.6558 18.1927 16.5523 18.9649 16.4413 19.7361C16.3824 20.1456 16.1616 20.4602 15.8155 20.6784C15.3999 20.9404 14.9598 21.1662 14.5589 21.4483C14.1709 21.7212 13.7921 22.0185 13.4578 22.3536C12.9193 22.8934 12.249 23.0961 11.5162 22.6227C10.7197 21.8263 9.92335 21.0299 9.12698 20.2335C9.04134 20.0167 8.92626 19.8063 8.87683 19.5815C8.79651 19.2163 8.93422 18.8865 9.12702 18.5795C9.31845 18.388 9.50991 18.1966 9.70133 18.0052C9.74456 17.9735 9.78901 17.9434 9.83085 17.91C10.3043 17.5329 10.7628 17.1351 11.2532 16.7816C12.6203 15.7963 14.1229 15.0784 15.74 14.6101C18.3018 13.8681 20.8877 13.7871 23.4904 14.3797C25.7569 14.8956 27.7971 15.8842 29.6136 17.3339C29.8875 17.5525 30.1533 17.7811 30.4229 18.0052C30.6143 18.1966 30.8058 18.388 30.9972 18.5795C31.0827 18.7963 31.198 19.0066 31.247 19.2315C31.3267 19.5963 31.1909 19.9267 30.9972 20.2335C30.2008 21.0299 29.4044 21.8263 28.608 22.6227Z" fill="white"/>
</g>
</svg>
