<svg width="40" height="39" viewBox="0 0 40 39" fill="none" xmlns="http://www.w3.org/2000/svg">
<circle cx="19.9806" cy="19.4064" r="19.4064" fill="#FF0051"/>
<rect x="10.5547" y="9.98047" width="18.9118" height="18.9118" fill="white" fill-opacity="0.01"/>
<mask id="mask0_1355_2039" style="mask-type:luminance" maskUnits="userSpaceOnUse" x="10" y="9" width="20" height="20">
<rect x="10.5547" y="9.98047" width="18.9118" height="18.9118" fill="white"/>
</mask>
<g mask="url(#mask0_1355_2039)">
<path fill-rule="evenodd" clip-rule="evenodd" d="M29.4675 23.5733C29.3251 23.9708 29.0545 24.1848 28.6205 24.1624C28.2346 24.1427 27.9641 23.9004 27.9062 23.5175C27.8916 23.4208 27.8891 23.3215 27.8891 23.2234C27.8882 21.2601 27.8885 19.2968 27.8885 17.3336C27.8885 17.2627 27.8885 17.1917 27.8885 17.0875C27.8087 17.1407 27.7587 17.1716 27.7112 17.206C26.646 17.9795 25.581 18.7533 24.5163 19.5273C24.103 19.8278 23.6865 19.7969 23.3221 19.4363C23.1165 19.2328 22.9192 19.0205 22.7065 18.8248C22.467 18.6047 22.3713 18.3383 22.3736 18.0182C22.3796 17.2058 22.3761 16.3934 22.3755 15.581C22.3749 14.9918 22.0927 14.709 21.5049 14.7086C20.6741 14.7078 19.8432 14.7109 19.0124 14.7075C18.414 14.705 18.065 14.2254 18.2383 13.6528C18.3304 13.3487 18.5715 13.1421 18.9279 13.138C19.8814 13.127 20.8385 13.0908 21.7882 13.1541C23.081 13.2403 23.9394 14.2141 23.9532 15.5116C23.9607 16.2131 23.9539 16.9148 23.9558 17.6164C23.956 17.6911 23.9722 17.7656 23.9861 17.884C24.0844 17.8175 24.144 17.7792 24.2016 17.738C25.5163 16.7954 26.8303 15.8517 28.1458 14.9102C28.554 14.618 28.9155 14.631 29.241 14.9646C29.3397 15.0659 29.3933 15.2112 29.4676 15.3364C29.4675 18.082 29.4675 20.8276 29.4675 23.5733ZM11.5151 9.98047C11.7084 10.1264 11.9208 10.2531 12.0921 10.4214C12.935 11.2499 13.7672 12.0893 14.603 12.9251C17.5102 15.8322 20.4173 18.7394 23.3245 21.6465C25.2261 23.5481 27.1295 25.4479 29.0261 27.3543C29.1954 27.5245 29.3208 27.7383 29.4666 27.9319C29.4666 28.0428 29.4666 28.1536 29.4666 28.2644C29.3522 28.5686 29.1559 28.7909 28.8387 28.8923C28.7279 28.8923 28.617 28.8923 28.5062 28.8923C28.3389 28.7722 28.1516 28.6722 28.0073 28.529C26.6404 27.1722 25.2809 25.8081 23.919 24.4463C23.877 24.4043 23.8321 24.3653 23.7849 24.3215C23.7658 24.3446 23.7515 24.3565 23.7441 24.3716C23.2822 25.321 22.503 25.7435 21.4689 25.7434C20.6936 25.7434 19.9183 25.7434 19.143 25.7434C17.0755 25.7434 15.008 25.7478 12.9406 25.7416C11.8282 25.7382 10.9401 25.0766 10.6487 24.056C10.6137 23.9331 10.5859 23.8082 10.5547 23.6842C10.5547 20.8523 10.5547 18.0205 10.5547 15.1887C10.5663 15.1547 10.5821 15.1215 10.5888 15.0867C10.7764 14.1137 11.3471 13.4893 12.2964 13.2103C12.3921 13.1822 12.4914 13.1664 12.6128 13.1395C12.0592 12.586 11.52 12.058 10.9955 11.5159C10.8286 11.3435 10.7005 11.1336 10.5547 10.9408C10.5547 10.8301 10.5547 10.7192 10.5547 10.6084C10.6643 10.2993 10.8731 10.0895 11.1826 9.98047C11.2934 9.98047 11.4042 9.98047 11.5151 9.98047ZM17.2527 24.1642C17.7328 24.1642 18.2129 24.1642 18.6929 24.1642C19.6531 24.1642 20.6134 24.1665 21.5735 24.1631C22.0676 24.1613 22.3661 23.8606 22.3743 23.3693C22.3761 23.2585 22.3858 23.1462 22.371 23.0374C22.3603 22.9594 22.3346 22.8664 22.282 22.8137C19.6129 20.1382 16.9405 17.466 14.2654 14.7967C14.2162 14.7475 14.129 14.7139 14.0586 14.7122C13.708 14.7037 13.3571 14.708 13.0062 14.7084C12.413 14.7091 12.1346 14.984 12.1344 15.5766C12.1334 18.1494 12.1334 20.7223 12.1344 23.295C12.1346 23.8875 12.4135 24.1639 13.0058 24.164C14.4214 24.1645 15.8371 24.1642 17.2527 24.1642Z" fill="white"/>
</g>
</svg>
