<svg width="270" height="39" viewBox="0 0 270 39" fill="none" xmlns="http://www.w3.org/2000/svg">
<circle cx="19.4064" cy="19.4064" r="19.4064" fill="#D9D9D9"/>
<rect x="12.3779" y="9.98047" width="14.0559" height="19.0781" fill="white" fill-opacity="0.01"/>
<mask id="mask0_1355_1970" style="mask-type:luminance" maskUnits="userSpaceOnUse" x="12" y="9" width="15" height="21">
<rect x="12.3779" y="9.98047" width="14.0559" height="19.0781" fill="white"/>
</mask>
<g mask="url(#mask0_1355_1970)">
<path fill-rule="evenodd" clip-rule="evenodd" d="M15.7799 16.4144C15.7799 15.4427 15.7788 14.4711 15.7801 13.4994C15.7828 11.4521 17.2479 10.0004 19.2922 9.98078C20.2024 9.97204 21.0407 10.1465 21.7576 10.731C22.5663 11.3903 23.0174 12.2458 23.0259 13.2923C23.043 15.3773 23.0472 17.4628 23.0261 19.5479C23.0079 21.3347 21.5719 22.7753 19.7866 22.8528C18.9678 22.8883 18.1685 22.8347 17.4485 22.3855C16.3968 21.7294 15.8168 20.7858 15.7867 19.5421C15.7616 18.5001 15.7816 17.457 15.7816 16.4144C15.781 16.4144 15.7804 16.4144 15.7799 16.4144ZM18.715 27.6956C18.715 27.0257 18.715 26.376 18.715 25.7471C18.1881 25.6165 17.6518 25.5343 17.1523 25.3515C14.553 24.4002 12.9884 22.552 12.4704 19.8314C12.4032 19.4786 12.3918 19.1131 12.3786 18.7526C12.3631 18.3344 12.6335 18.0398 13.0158 18.0248C13.4213 18.0089 13.7278 18.2914 13.7329 18.7249C13.7427 19.5531 13.9152 20.3411 14.2606 21.0925C15.2913 23.3342 17.6976 24.6504 20.17 24.3247C22.5935 24.0054 24.5798 22.1021 24.9855 19.6979C25.0418 19.3639 25.0491 19.0216 25.0788 18.6832C25.1075 18.3558 25.3145 18.1016 25.605 18.0375C25.8944 17.9736 26.2012 18.0903 26.3361 18.3469C26.3989 18.4666 26.4364 18.6162 26.4336 18.7512C26.3864 21.053 25.4435 22.9122 23.6281 24.3191C22.5957 25.1192 21.4092 25.5584 20.1009 25.7025C20.1009 26.3634 20.1009 27.019 20.1009 27.6956C20.184 27.6956 20.26 27.6956 20.336 27.6956C21.0028 27.6957 21.6698 27.6924 22.3366 27.6969C22.7384 27.6997 23.0321 27.9905 23.0336 28.3731C23.0352 28.7584 22.7449 29.0554 22.3437 29.0561C20.3857 29.0595 18.4276 29.0595 16.4695 29.0562C16.0687 29.0555 15.778 28.7582 15.7795 28.373C15.781 27.9875 16.0711 27.6998 16.4757 27.697C17.1425 27.6924 17.8094 27.6957 18.4763 27.6956C18.5525 27.6956 18.6286 27.6956 18.715 27.6956Z" fill="black"/>
</g>
<circle cx="112.555" cy="19.4064" r="19.4064" fill="#D9D9D9"/>
<rect x="101.926" y="8.77734" width="21.2588" height="21.2588" fill="white" fill-opacity="0.01"/>
<mask id="mask1_1355_1970" style="mask-type:luminance" maskUnits="userSpaceOnUse" x="101" y="8" width="23" height="23">
<rect x="101.926" y="8.77734" width="21.2588" height="21.2588" fill="white"/>
</mask>
<g mask="url(#mask1_1355_1970)">
<path fill-rule="evenodd" clip-rule="evenodd" d="M123.192 19.7802C123.116 19.6971 123.121 19.6141 123.192 19.531C123.192 19.6141 123.192 19.6972 123.192 19.7802Z" fill="#161616"/>
<path fill-rule="evenodd" clip-rule="evenodd" d="M112.223 30.0444C112.306 29.9699 112.389 29.9712 112.472 30.0444C112.389 30.0444 112.306 30.0444 112.223 30.0444Z" fill="#101010"/>
<path fill-rule="evenodd" clip-rule="evenodd" d="M123.192 19.2819C123.121 19.1988 123.116 19.1158 123.192 19.0327C123.192 19.1158 123.192 19.1989 123.192 19.2819Z" fill="#161616"/>
<path fill-rule="evenodd" clip-rule="evenodd" d="M112.639 30.0449C112.708 29.9717 112.777 29.9704 112.846 30.0449C112.777 30.0449 112.708 30.0449 112.639 30.0449Z" fill="#101010"/>
<path fill-rule="evenodd" clip-rule="evenodd" d="M101.975 18.8646C101.983 18.9121 101.997 18.9609 101.926 18.9923C101.926 18.9505 101.926 18.9088 101.926 18.8671C101.94 18.8492 101.957 18.8484 101.975 18.8646Z" fill="#434343"/>
<path fill-rule="evenodd" clip-rule="evenodd" d="M101.926 19.8218C101.997 19.8531 101.983 19.9019 101.974 19.9495C101.957 19.966 101.94 19.9643 101.926 19.947C101.926 19.9052 101.926 19.8635 101.926 19.8218Z" fill="#434343"/>
<path fill-rule="evenodd" clip-rule="evenodd" d="M112.096 8.83088C112.054 8.83164 112.013 8.8324 111.971 8.83299C111.959 8.81954 111.955 8.80677 111.96 8.79477C111.964 8.78318 111.969 8.77734 111.973 8.77734C112.015 8.77734 112.057 8.77734 112.098 8.77734C112.113 8.79096 112.117 8.80339 112.111 8.81472C112.106 8.82546 112.101 8.83088 112.096 8.83088Z" fill="#4E4E4E"/>
<path fill-rule="evenodd" clip-rule="evenodd" d="M113.141 8.83299C113.099 8.83231 113.058 8.83155 113.016 8.83088C113.001 8.82073 112.995 8.80948 112.999 8.79696C113.004 8.78394 113.008 8.77734 113.013 8.77734C113.055 8.77734 113.097 8.77734 113.138 8.77734C113.151 8.78859 113.156 8.8006 113.152 8.81337C113.149 8.82648 113.145 8.83299 113.141 8.83299Z" fill="#4E4E4E"/>
<path fill-rule="evenodd" clip-rule="evenodd" d="M113.14 30.0055C113.183 30.0068 113.237 29.9586 113.262 30.0495C113.22 30.0495 113.178 30.0495 113.136 30.0495C113.122 30.0379 113.118 30.0275 113.124 30.0183C113.129 30.0098 113.134 30.0055 113.14 30.0055Z" fill="#7B7B7B"/>
<path fill-rule="evenodd" clip-rule="evenodd" d="M111.89 8.82672C111.856 8.83288 111.818 8.85011 111.809 8.77734C111.836 8.77734 111.864 8.77734 111.892 8.77734C111.906 8.78936 111.91 8.80066 111.905 8.81135C111.9 8.82157 111.895 8.82672 111.89 8.82672Z" fill="#909090"/>
<path fill-rule="evenodd" clip-rule="evenodd" d="M111.889 8.83058C111.89 8.81284 111.891 8.79509 111.891 8.77734C111.918 8.77734 111.946 8.77734 111.974 8.77734C111.974 8.79593 111.973 8.81443 111.972 8.83285C111.944 8.83201 111.916 8.83134 111.889 8.83058Z" fill="#717171"/>
<path fill-rule="evenodd" clip-rule="evenodd" d="M123.153 18.8235C123.146 18.7895 123.134 18.754 123.203 18.7424C123.203 18.7703 123.203 18.7981 123.203 18.8259C123.184 18.8457 123.167 18.8439 123.153 18.8235Z" fill="#747474"/>
<path fill-rule="evenodd" clip-rule="evenodd" d="M101.981 18.8653C101.963 18.8662 101.944 18.867 101.926 18.8678C101.926 18.8399 101.926 18.8121 101.926 18.7843C101.943 18.7668 101.961 18.7652 101.981 18.7823C101.981 18.8099 101.981 18.8376 101.981 18.8653Z" fill="#616161"/>
<path fill-rule="evenodd" clip-rule="evenodd" d="M123.152 19.9908C123.142 19.9548 123.144 19.9219 123.203 19.905C123.203 19.9329 123.203 19.9607 123.203 19.9885C123.188 20.0063 123.17 20.0071 123.152 19.9908Z" fill="#555555"/>
<path fill-rule="evenodd" clip-rule="evenodd" d="M101.926 19.9468C101.944 19.9475 101.963 19.9484 101.981 19.9493C101.981 19.9769 101.981 20.0046 101.981 20.0323C101.961 20.0493 101.943 20.0478 101.926 20.0302C101.926 20.0024 101.926 19.9746 101.926 19.9468Z" fill="#616161"/>
<path fill-rule="evenodd" clip-rule="evenodd" d="M123.151 19.9903C123.168 19.9896 123.184 19.9889 123.201 19.988C123.201 20.0158 123.201 20.0435 123.201 20.0713C123.132 20.06 123.144 20.0245 123.151 19.9903Z" fill="#757575"/>
<path fill-rule="evenodd" clip-rule="evenodd" d="M101.926 20.0295C101.942 20.0301 101.959 20.0308 101.975 20.0315C101.982 20.0659 101.997 20.1028 101.926 20.1128C101.926 20.085 101.926 20.0573 101.926 20.0295Z" fill="#818181"/>
<path fill-rule="evenodd" clip-rule="evenodd" d="M101.975 18.7822C101.959 18.7829 101.942 18.7836 101.926 18.7842C101.926 18.7564 101.926 18.7287 101.926 18.7009C101.997 18.7111 101.982 18.7479 101.975 18.7822Z" fill="#808080"/>
<path fill-rule="evenodd" clip-rule="evenodd" d="M113.303 8.77734C113.293 8.85011 113.255 8.83288 113.221 8.82672C113.206 8.81681 113.201 8.80612 113.206 8.79481C113.21 8.78319 113.215 8.77734 113.219 8.77734C113.247 8.77734 113.275 8.77734 113.303 8.77734Z" fill="#909090"/>
<path fill-rule="evenodd" clip-rule="evenodd" d="M113.22 8.77743C113.22 8.79526 113.221 8.813 113.222 8.83066C113.194 8.83142 113.167 8.83226 113.139 8.83285C113.137 8.81435 113.136 8.79593 113.137 8.77734C113.165 8.77743 113.192 8.77743 113.22 8.77743Z" fill="#717171"/>
<path fill-rule="evenodd" clip-rule="evenodd" d="M111.809 30.0522C111.818 29.9792 111.856 29.9966 111.89 30.0033C111.905 30.0131 111.91 30.0236 111.906 30.0348C111.901 30.0463 111.897 30.0522 111.892 30.0522C111.864 30.0522 111.836 30.0522 111.809 30.0522Z" fill="#939393"/>
<path fill-rule="evenodd" clip-rule="evenodd" d="M111.891 30.0571C111.89 30.0385 111.89 30.0199 111.889 30.0015C111.916 30.0016 111.944 30.0018 111.972 30.002C111.987 30.0127 111.992 30.0245 111.988 30.0372C111.983 30.0504 111.979 30.0571 111.974 30.0571C111.946 30.0571 111.918 30.0571 111.891 30.0571Z" fill="#737373"/>
<path fill-rule="evenodd" clip-rule="evenodd" d="M111.974 30.0536C111.973 30.0367 111.973 30.0198 111.972 30.003C112.008 29.9926 112.041 29.9939 112.057 30.0536C112.029 30.0536 112.002 30.0536 111.974 30.0536Z" fill="#565656"/>
<path fill-rule="evenodd" clip-rule="evenodd" d="M113.012 8.77734C113.012 8.79467 113.013 8.81207 113.015 8.82931C112.979 8.83859 112.947 8.83235 112.929 8.77734C112.956 8.77734 112.984 8.77734 113.012 8.77734Z" fill="#363636"/>
<path fill-rule="evenodd" clip-rule="evenodd" d="M112.097 8.82931C112.098 8.81199 112.099 8.79475 112.099 8.77734C112.127 8.77734 112.155 8.77734 112.183 8.77734C112.164 8.83235 112.133 8.83859 112.097 8.82931Z" fill="#363636"/>
<path fill-rule="evenodd" clip-rule="evenodd" d="M113.141 30.0045C113.14 30.0208 113.139 30.0372 113.138 30.0536C113.11 30.0536 113.082 30.0536 113.055 30.0536C113.071 29.9918 113.105 29.9924 113.141 30.0045Z" fill="#565656"/>
<path fill-rule="evenodd" clip-rule="evenodd" d="M123.152 18.8232C123.169 18.8235 123.186 18.8244 123.203 18.8256C123.203 18.8534 123.203 18.8811 123.203 18.9089C123.144 18.8919 123.142 18.8593 123.152 18.8232Z" fill="#555555"/>
<path fill-rule="evenodd" clip-rule="evenodd" d="M123.185 18.5763C123.14 18.3464 123.161 18.1109 123.126 17.8802C122.729 15.2325 121.502 13.0387 119.484 11.2908C118.069 10.0651 116.43 9.28618 114.594 8.91455C114.193 8.83343 113.788 8.83017 113.386 8.77734C113.358 8.77734 113.33 8.77734 113.303 8.77734C113.276 8.80636 113.24 8.79645 113.207 8.79877C113.181 8.79872 113.155 8.79872 113.129 8.79877C113.095 8.79872 113.06 8.79877 113.026 8.79877C112.992 8.79634 112.956 8.80663 112.929 8.77734C112.68 8.77734 112.431 8.77734 112.181 8.77734C112.154 8.80663 112.118 8.79634 112.085 8.79877C112.05 8.79872 112.016 8.79877 111.981 8.79877C111.955 8.79872 111.93 8.79872 111.904 8.79877C111.871 8.79645 111.835 8.8063 111.808 8.77734C111.752 8.77734 111.697 8.77734 111.642 8.77734C111.46 8.81848 111.272 8.80054 111.09 8.82574C109.263 9.07744 107.611 9.76484 106.14 10.8712C105.063 11.6809 104.163 12.6607 103.459 13.8136C102.756 14.9649 102.272 16.1998 102.036 17.5312C101.977 17.8644 101.976 18.2018 101.926 18.5348C101.926 18.5902 101.926 18.6455 101.926 18.7009C101.954 18.7274 101.945 18.7625 101.947 18.7949C101.947 18.8202 101.947 18.8455 101.947 18.8709C101.942 18.9115 101.961 18.9563 101.926 18.9916C101.926 19.2684 101.926 19.5452 101.926 19.822C101.961 19.8572 101.942 19.9019 101.947 19.9425C101.947 19.9678 101.947 19.9932 101.947 20.0185C101.945 20.051 101.954 20.0862 101.926 20.1126C101.926 20.168 101.926 20.2234 101.926 20.2787C101.964 20.4748 101.947 20.6759 101.974 20.8719C102.177 22.3672 102.687 23.7526 103.481 25.0341C104.065 25.9761 104.785 26.8018 105.625 27.5229C106.82 28.5476 108.176 29.2688 109.689 29.6975C110.329 29.8786 110.979 29.9921 111.642 30.0361C111.697 30.0361 111.752 30.0361 111.808 30.0361C111.832 30.0089 111.865 30.0162 111.896 30.0147C111.92 30.0147 111.944 30.0147 111.968 30.0147C111.999 30.0163 112.032 30.0089 112.057 30.0361C112.112 30.0361 112.168 30.0361 112.223 30.0361C112.306 30.0022 112.389 30.0022 112.472 30.0361C112.528 30.0361 112.583 30.0361 112.638 30.0361C112.707 30.0023 112.777 30.0023 112.846 30.0361C112.915 30.0361 112.984 30.0361 113.053 30.0361C113.079 30.0081 113.113 30.0165 113.145 30.0147C113.184 30.0189 113.227 30.0024 113.261 30.0361C113.303 30.0361 113.344 30.0361 113.386 30.0361C114.091 29.9981 114.782 29.8832 115.461 29.6887C117.058 29.2315 118.475 28.4455 119.706 27.3352C120.443 26.6705 121.082 25.9167 121.607 25.0695C122.329 23.9042 122.825 22.653 123.072 21.3026C123.134 20.9631 123.135 20.6186 123.185 20.2787C123.185 20.2095 123.185 20.1402 123.185 20.071C123.159 20.0481 123.164 20.0173 123.163 19.988C123.164 19.9587 123.159 19.9279 123.185 19.9049C123.185 19.8634 123.185 19.8219 123.185 19.7804C123.151 19.6973 123.151 19.6142 123.185 19.5312C123.185 19.4481 123.185 19.3651 123.185 19.282C123.151 19.199 123.151 19.1159 123.185 19.0329C123.185 18.9914 123.185 18.9498 123.185 18.9083C123.159 18.8854 123.164 18.8546 123.163 18.8253C123.164 18.796 123.159 18.7652 123.185 18.7423C123.185 18.6871 123.185 18.6317 123.185 18.5763ZM112.561 28.7072C107.44 28.7123 103.26 24.5366 103.256 19.4116C103.252 14.2885 107.425 10.111 112.551 10.106C117.674 10.101 121.852 14.2745 121.857 19.4013C121.861 24.5237 117.688 28.7022 112.561 28.7072Z" fill="black"/>
<path fill-rule="evenodd" clip-rule="evenodd" d="M112.1 25.8529C110.146 25.7874 108.271 24.7755 106.995 22.7085C106.732 22.2819 106.904 21.8084 107.353 21.6754C107.649 21.5878 107.939 21.7077 108.124 22.0133C108.512 22.6556 109.007 23.1945 109.621 23.6272C111.967 25.2799 115.363 24.6001 116.884 22.1706C116.924 22.1062 116.964 22.0411 117.005 21.9778C117.221 21.6499 117.608 21.5535 117.926 21.7477C118.239 21.9395 118.333 22.3326 118.136 22.6725C117.737 23.3615 117.228 23.9582 116.604 24.4548C115.444 25.3788 114.068 25.8529 112.1 25.8529Z" fill="black"/>
<path fill-rule="evenodd" clip-rule="evenodd" d="M118.253 16.7808C118.256 17.5193 117.665 18.1166 116.931 18.1179C116.201 18.1193 115.594 17.5131 115.597 16.7853C115.599 16.0628 116.194 15.4651 116.916 15.4612C117.656 15.4572 118.249 16.0428 118.253 16.7808Z" fill="black"/>
<path fill-rule="evenodd" clip-rule="evenodd" d="M106.857 16.7971C106.854 16.057 107.441 15.4628 108.178 15.4612C108.911 15.4595 109.515 16.0614 109.513 16.7904C109.512 17.5121 108.916 18.1122 108.195 18.1181C107.459 18.1241 106.861 17.5333 106.857 16.7971Z" fill="black"/>
</g>
<circle cx="159.133" cy="19.4064" r="19.4064" fill="#D9D9D9"/>
<rect x="154.276" y="9.70215" width="9.71013" height="19.4087" fill="white" fill-opacity="0.01"/>
<mask id="mask2_1355_1970" style="mask-type:luminance" maskUnits="userSpaceOnUse" x="154" y="9" width="10" height="21">
<rect x="154.276" y="9.70215" width="9.71013" height="19.4087" fill="white"/>
</mask>
<g mask="url(#mask2_1355_1970)">
<path fill-rule="evenodd" clip-rule="evenodd" d="M158.6 29.1108C158.351 29.0052 158.078 29.0058 157.821 28.9283C156.299 28.4693 155.234 27.5064 154.623 26.0433C154.366 25.4295 154.277 24.7823 154.278 24.1192C154.279 20.5183 154.271 16.9174 154.282 13.3166C154.286 11.7991 154.989 10.695 156.351 10.0201C156.652 9.87116 156.975 9.78583 157.309 9.73957C157.348 9.73404 157.4 9.75606 157.425 9.70215C157.678 9.70215 157.93 9.70215 158.183 9.70215C158.318 9.77404 158.473 9.75921 158.616 9.79673C160.281 10.2312 161.331 11.5808 161.333 13.3104C161.336 15.8752 161.334 18.44 161.334 21.0047C161.334 21.529 161.341 22.0536 161.329 22.5776C161.302 23.7188 160.403 24.6157 159.218 24.6957C158.154 24.7676 157.145 23.954 156.963 22.8831C156.936 22.7261 156.928 22.5696 156.928 22.4119C156.928 19.7081 156.929 17.0044 156.924 14.3006C156.924 14.1408 156.967 14.1004 157.123 14.1068C157.439 14.1198 157.755 14.1202 158.07 14.1067C158.228 14.0999 158.255 14.1556 158.255 14.2986C158.251 16.9897 158.253 19.6807 158.25 22.3718C158.25 22.633 158.293 22.8719 158.471 23.0746C158.704 23.3409 159.076 23.4397 159.418 23.3221C159.754 23.2063 159.982 22.9109 160.005 22.561C160.008 22.5043 160.01 22.4474 160.01 22.3906C160.01 19.3646 160.011 16.3387 160.009 13.3128C160.009 12.2666 159.429 11.4447 158.483 11.1345C157.094 10.6793 155.621 11.7053 155.61 13.1671C155.592 15.6116 155.604 18.0564 155.603 20.5012C155.603 21.7457 155.597 22.9902 155.605 24.2346C155.615 25.985 156.805 27.4122 158.506 27.7296C160.458 28.094 162.361 26.7151 162.622 24.7514C162.65 24.5374 162.658 24.3239 162.658 24.1093C162.658 20.8497 162.66 17.5901 162.653 14.3304C162.653 14.1451 162.699 14.0965 162.881 14.1061C163.189 14.1225 163.5 14.1184 163.809 14.1071C163.95 14.102 163.987 14.1389 163.986 14.2828C163.98 15.6788 163.983 17.0749 163.983 18.471C163.983 20.3598 163.985 22.2486 163.982 24.1375C163.98 25.8372 163.307 27.2052 161.932 28.2126C161.268 28.6991 160.516 28.9749 159.7 29.0746C159.661 29.0794 159.608 29.0514 159.586 29.1108C159.257 29.1108 158.928 29.1108 158.6 29.1108Z" fill="black"/>
</g>
<circle cx="203.49" cy="19.4064" r="19.4064" fill="#D9D9D9"/>
<circle cx="203.174" cy="13.0696" r="1.98025" transform="rotate(90 203.174 13.0696)" fill="black"/>
<ellipse cx="203.174" cy="19.4065" rx="1.98025" ry="1.98025" transform="rotate(90 203.174 19.4065)" fill="black"/>
<ellipse cx="203.174" cy="25.7434" rx="1.98025" ry="1.98025" transform="rotate(90 203.174 25.7434)" fill="black"/>
<circle cx="250.065" cy="19.4064" r="19.4064" fill="#FF0051"/>
<rect x="261.824" y="19.4065" width="16.6342" height="16.6341" transform="rotate(135 261.824 19.4065)" fill="white" fill-opacity="0.01"/>
<mask id="mask3_1355_1970" style="mask-type:luminance" maskUnits="userSpaceOnUse" x="238" y="7" width="24" height="25">
<rect x="261.824" y="19.4065" width="16.6342" height="16.6341" transform="rotate(135 261.824 19.4065)" fill="white"/>
</mask>
<g mask="url(#mask3_1355_1970)">
<path fill-rule="evenodd" clip-rule="evenodd" d="M258.608 22.6227C258.348 22.7863 258.074 22.9062 257.759 22.8975C257.403 22.8878 257.097 22.7576 256.839 22.5122C256.308 22.0084 255.749 21.5395 255.122 21.1582C254.859 20.9984 254.586 20.8555 254.322 20.6965C253.929 20.4596 253.729 20.1045 253.672 19.6501C253.577 18.8932 253.467 18.1382 253.357 17.3833C253.351 17.3399 253.297 17.2818 253.253 17.2686C251.569 16.7541 249.863 16.5857 248.126 16.9602C247.714 17.0491 247.307 17.161 246.897 17.2563C246.801 17.2786 246.77 17.3261 246.757 17.4202C246.656 18.1927 246.552 18.9649 246.441 19.7361C246.382 20.1456 246.162 20.4602 245.816 20.6784C245.4 20.9404 244.96 21.1662 244.559 21.4483C244.171 21.7212 243.792 22.0185 243.458 22.3536C242.919 22.8934 242.249 23.0961 241.516 22.6227C240.72 21.8263 239.923 21.0299 239.127 20.2335C239.041 20.0167 238.926 19.8063 238.877 19.5815C238.797 19.2163 238.934 18.8865 239.127 18.5795C239.318 18.388 239.51 18.1966 239.701 18.0052C239.745 17.9735 239.789 17.9434 239.831 17.91C240.304 17.5329 240.763 17.1351 241.253 16.7816C242.62 15.7963 244.123 15.0784 245.74 14.6101C248.302 13.8681 250.888 13.7871 253.49 14.3797C255.757 14.8956 257.797 15.8842 259.614 17.3339C259.887 17.5525 260.153 17.7811 260.423 18.0052C260.614 18.1966 260.806 18.388 260.997 18.5795C261.083 18.7963 261.198 19.0066 261.247 19.2315C261.327 19.5963 261.191 19.9267 260.997 20.2335C260.201 21.0299 259.404 21.8263 258.608 22.6227Z" fill="white"/>
</g>
<circle cx="65.9806" cy="19.4064" r="19.4064" fill="#FF0051"/>
<rect x="56.5547" y="9.98047" width="18.9118" height="18.9118" fill="white" fill-opacity="0.01"/>
<mask id="mask4_1355_1970" style="mask-type:luminance" maskUnits="userSpaceOnUse" x="56" y="9" width="20" height="20">
<rect x="56.5547" y="9.98047" width="18.9118" height="18.9118" fill="white"/>
</mask>
<g mask="url(#mask4_1355_1970)">
<path fill-rule="evenodd" clip-rule="evenodd" d="M75.4675 23.5733C75.3251 23.9708 75.0545 24.1848 74.6205 24.1624C74.2346 24.1427 73.9641 23.9004 73.9062 23.5175C73.8916 23.4208 73.8891 23.3215 73.8891 23.2234C73.8882 21.2601 73.8885 19.2968 73.8885 17.3336C73.8885 17.2627 73.8885 17.1917 73.8885 17.0875C73.8087 17.1407 73.7587 17.1716 73.7112 17.206C72.646 17.9795 71.581 18.7533 70.5163 19.5273C70.103 19.8278 69.6865 19.7969 69.3221 19.4363C69.1165 19.2328 68.9192 19.0205 68.7065 18.8248C68.467 18.6047 68.3713 18.3383 68.3736 18.0182C68.3796 17.2058 68.3761 16.3934 68.3755 15.581C68.3749 14.9918 68.0927 14.709 67.5049 14.7086C66.6741 14.7078 65.8432 14.7109 65.0124 14.7075C64.414 14.705 64.065 14.2254 64.2383 13.6528C64.3304 13.3487 64.5715 13.1421 64.9279 13.138C65.8814 13.127 66.8385 13.0908 67.7882 13.1541C69.081 13.2403 69.9394 14.2141 69.9532 15.5116C69.9607 16.2131 69.9539 16.9148 69.9558 17.6164C69.956 17.6911 69.9722 17.7656 69.9861 17.884C70.0844 17.8175 70.144 17.7792 70.2016 17.738C71.5163 16.7954 72.8303 15.8517 74.1458 14.9102C74.554 14.618 74.9155 14.631 75.241 14.9646C75.3397 15.0659 75.3933 15.2112 75.4676 15.3364C75.4675 18.082 75.4675 20.8276 75.4675 23.5733ZM57.5151 9.98047C57.7084 10.1264 57.9208 10.2531 58.0921 10.4214C58.935 11.2499 59.7672 12.0893 60.603 12.9251C63.5102 15.8322 66.4173 18.7394 69.3245 21.6465C71.2261 23.5481 73.1295 25.4479 75.0261 27.3543C75.1954 27.5245 75.3208 27.7383 75.4666 27.9319C75.4666 28.0428 75.4666 28.1536 75.4666 28.2644C75.3522 28.5686 75.1559 28.7909 74.8387 28.8923C74.7279 28.8923 74.617 28.8923 74.5062 28.8923C74.3389 28.7722 74.1516 28.6722 74.0073 28.529C72.6404 27.1722 71.2809 25.8081 69.919 24.4463C69.877 24.4043 69.8321 24.3653 69.7849 24.3215C69.7658 24.3446 69.7515 24.3565 69.7441 24.3716C69.2822 25.321 68.503 25.7435 67.4689 25.7434C66.6936 25.7434 65.9183 25.7434 65.143 25.7434C63.0755 25.7434 61.008 25.7478 58.9406 25.7416C57.8282 25.7382 56.9401 25.0766 56.6487 24.056C56.6137 23.9331 56.5859 23.8082 56.5547 23.6842C56.5547 20.8523 56.5547 18.0205 56.5547 15.1887C56.5663 15.1547 56.5821 15.1215 56.5888 15.0867C56.7764 14.1137 57.3471 13.4893 58.2964 13.2103C58.3921 13.1822 58.4914 13.1664 58.6128 13.1395C58.0592 12.586 57.52 12.058 56.9955 11.5159C56.8286 11.3435 56.7005 11.1336 56.5547 10.9408C56.5547 10.8301 56.5547 10.7192 56.5547 10.6084C56.6643 10.2993 56.8731 10.0895 57.1826 9.98047C57.2934 9.98047 57.4042 9.98047 57.5151 9.98047ZM63.2527 24.1642C63.7328 24.1642 64.2129 24.1642 64.6929 24.1642C65.6531 24.1642 66.6134 24.1665 67.5735 24.1631C68.0676 24.1613 68.3661 23.8606 68.3743 23.3693C68.3761 23.2585 68.3858 23.1462 68.371 23.0374C68.3603 22.9594 68.3346 22.8664 68.282 22.8137C65.6129 20.1382 62.9405 17.466 60.2654 14.7967C60.2162 14.7475 60.129 14.7139 60.0586 14.7122C59.708 14.7037 59.3571 14.708 59.0062 14.7084C58.413 14.7091 58.1346 14.984 58.1344 15.5766C58.1334 18.1494 58.1334 20.7223 58.1344 23.295C58.1346 23.8875 58.4135 24.1639 59.0058 24.164C60.4214 24.1645 61.8371 24.1642 63.2527 24.1642Z" fill="white"/>
</g>
</svg>
