<svg width="39" height="39" viewBox="0 0 39 39" fill="none" xmlns="http://www.w3.org/2000/svg">
<circle cx="19.4064" cy="19.4064" r="19.4064" fill="#D9D9D9"/>
<rect x="12.3779" y="9.98047" width="14.0559" height="19.0781" fill="white" fill-opacity="0.01"/>
<mask id="mask0_1355_1971" style="mask-type:luminance" maskUnits="userSpaceOnUse" x="12" y="9" width="15" height="21">
<rect x="12.3779" y="9.98047" width="14.0559" height="19.0781" fill="white"/>
</mask>
<g mask="url(#mask0_1355_1971)">
<path fill-rule="evenodd" clip-rule="evenodd" d="M15.7799 16.4144C15.7799 15.4427 15.7788 14.4711 15.7801 13.4994C15.7828 11.4521 17.2479 10.0004 19.2922 9.98078C20.2024 9.97204 21.0407 10.1465 21.7576 10.731C22.5663 11.3903 23.0174 12.2458 23.0259 13.2923C23.043 15.3773 23.0472 17.4628 23.0261 19.5479C23.0079 21.3347 21.5719 22.7753 19.7866 22.8528C18.9678 22.8883 18.1685 22.8347 17.4485 22.3855C16.3968 21.7294 15.8168 20.7858 15.7867 19.5421C15.7616 18.5001 15.7816 17.457 15.7816 16.4144C15.781 16.4144 15.7804 16.4144 15.7799 16.4144ZM18.715 27.6956C18.715 27.0257 18.715 26.376 18.715 25.7471C18.1881 25.6165 17.6518 25.5343 17.1523 25.3515C14.553 24.4002 12.9884 22.552 12.4704 19.8314C12.4032 19.4786 12.3918 19.1131 12.3786 18.7526C12.3631 18.3344 12.6335 18.0398 13.0158 18.0248C13.4213 18.0089 13.7278 18.2914 13.7329 18.7249C13.7427 19.5531 13.9152 20.3411 14.2606 21.0925C15.2913 23.3342 17.6976 24.6504 20.17 24.3247C22.5935 24.0054 24.5798 22.1021 24.9855 19.6979C25.0418 19.3639 25.0491 19.0216 25.0788 18.6832C25.1075 18.3558 25.3145 18.1016 25.605 18.0375C25.8944 17.9736 26.2012 18.0903 26.3361 18.3469C26.3989 18.4666 26.4364 18.6162 26.4336 18.7512C26.3864 21.053 25.4435 22.9122 23.6281 24.3191C22.5957 25.1192 21.4092 25.5584 20.1009 25.7025C20.1009 26.3634 20.1009 27.019 20.1009 27.6956C20.184 27.6956 20.26 27.6956 20.336 27.6956C21.0028 27.6957 21.6698 27.6924 22.3366 27.6969C22.7384 27.6997 23.0321 27.9905 23.0336 28.3731C23.0352 28.7584 22.7449 29.0554 22.3437 29.0561C20.3857 29.0595 18.4276 29.0595 16.4695 29.0562C16.0687 29.0555 15.778 28.7582 15.7795 28.373C15.781 27.9875 16.0711 27.6998 16.4757 27.697C17.1425 27.6924 17.8094 27.6957 18.4763 27.6956C18.5525 27.6956 18.6286 27.6956 18.715 27.6956Z" fill="black"/>
</g>
</svg>
