<svg width="22" height="22" viewBox="0 0 22 22" fill="none" xmlns="http://www.w3.org/2000/svg">
<path d="M14.642 6.14381V5.87496C14.642 3.89443 13.0379 2.29028 11.0573 2.29028C9.0768 2.29028 7.47266 3.89443 7.47266 5.87496V10.3558" stroke="white" stroke-width="1.66129" stroke-linecap="round" stroke-linejoin="round"/>
<path d="M8.40332 13.2145C9.05752 13.9404 10.0075 14.3885 11.056 14.3885C13.0365 14.3885 14.6407 12.7843 14.6407 10.8038V10.3557" stroke="white" stroke-width="1.66129" stroke-linecap="round" stroke-linejoin="round"/>
<path d="M6.37891 15.6878C7.60666 16.8259 9.24665 17.5249 11.0569 17.5249C14.8387 17.5249 17.9126 14.4511 17.9126 10.6692V9.14575" stroke="white" stroke-width="1.66129" stroke-linecap="round" stroke-linejoin="round"/>
<path d="M4.20117 9.14575V10.6692C4.20117 11.6192 4.38937 12.5153 4.73887 13.3398" stroke="white" stroke-width="1.66129" stroke-linecap="round" stroke-linejoin="round"/>
<path d="M18.2884 3.04297L3.82422 17.5161" stroke="white" stroke-width="1.66129" stroke-linecap="round" stroke-linejoin="round"/>
<path d="M10.1602 3.18628V5.87479" stroke="white" stroke-width="1.66129" stroke-linecap="round" stroke-linejoin="round"/>
<path d="M11.0566 17.5249V20.2134" stroke="white" stroke-width="1.66129" stroke-linecap="round" stroke-linejoin="round"/>
</svg>
