<svg width="23" height="23" viewBox="0 0 23 23" fill="none" xmlns="http://www.w3.org/2000/svg">
<rect x="0.925781" y="0.777344" width="21.2588" height="21.2588" fill="white" fill-opacity="0.01"/>
<mask id="mask0_1355_1982" style="mask-type:luminance" maskUnits="userSpaceOnUse" x="0" y="0" width="23" height="23">
<rect x="0.925781" y="0.777344" width="21.2588" height="21.2588" fill="white"/>
</mask>
<g mask="url(#mask0_1355_1982)">
<path fill-rule="evenodd" clip-rule="evenodd" d="M22.1921 11.7802C22.1156 11.6971 22.1209 11.6141 22.1921 11.531C22.1921 11.6141 22.1921 11.6972 22.1921 11.7802Z" fill="#161616"/>
<path fill-rule="evenodd" clip-rule="evenodd" d="M11.2227 22.0444C11.3057 21.9699 11.3888 21.9712 11.4718 22.0444C11.3888 22.0444 11.3057 22.0444 11.2227 22.0444Z" fill="#101010"/>
<path fill-rule="evenodd" clip-rule="evenodd" d="M22.1921 11.2819C22.121 11.1988 22.1156 11.1158 22.1921 11.0327C22.1921 11.1158 22.1921 11.1989 22.1921 11.2819Z" fill="#161616"/>
<path fill-rule="evenodd" clip-rule="evenodd" d="M11.6387 22.0449C11.7079 21.9717 11.7771 21.9704 11.8463 22.0449C11.7771 22.0449 11.7079 22.0449 11.6387 22.0449Z" fill="#101010"/>
<path fill-rule="evenodd" clip-rule="evenodd" d="M0.974504 10.8646C0.982562 10.9121 0.99708 10.9609 0.925781 10.9923C0.925781 10.9505 0.925781 10.9088 0.925781 10.8671C0.940375 10.8492 0.956642 10.8484 0.974504 10.8646Z" fill="#434343"/>
<path fill-rule="evenodd" clip-rule="evenodd" d="M0.925781 11.8218C0.997104 11.8531 0.982581 11.9019 0.974445 11.9495C0.956576 11.966 0.940456 11.9643 0.925781 11.947C0.925781 11.9052 0.925781 11.8635 0.925781 11.8218Z" fill="#434343"/>
<path fill-rule="evenodd" clip-rule="evenodd" d="M11.0957 0.830877C11.0541 0.831638 11.0126 0.832399 10.9711 0.832991C10.959 0.819544 10.9553 0.806774 10.9599 0.794765C10.9644 0.783179 10.9688 0.777344 10.9732 0.777344C11.015 0.777344 11.0567 0.777344 11.0984 0.777344C11.1126 0.79096 11.1169 0.803391 11.1114 0.814724C11.1061 0.825464 11.1009 0.830877 11.0957 0.830877Z" fill="#4E4E4E"/>
<path fill-rule="evenodd" clip-rule="evenodd" d="M12.1406 0.832991C12.0991 0.832314 12.0575 0.831553 12.016 0.830877C12.0007 0.820728 11.9952 0.80948 11.9995 0.796964C12.0038 0.78394 12.0085 0.777344 12.0133 0.777344C12.055 0.777344 12.0967 0.777344 12.1385 0.777344C12.1515 0.788592 12.1562 0.800601 12.1524 0.813371C12.1486 0.826479 12.1447 0.832991 12.1406 0.832991Z" fill="#4E4E4E"/>
<path fill-rule="evenodd" clip-rule="evenodd" d="M12.1395 22.0055C12.1831 22.0068 12.2369 21.9586 12.2616 22.0495C12.2198 22.0495 12.1781 22.0495 12.1364 22.0495C12.1221 22.0379 12.1178 22.0275 12.1235 22.0183C12.1288 22.0098 12.1341 22.0055 12.1395 22.0055Z" fill="#7B7B7B"/>
<path fill-rule="evenodd" clip-rule="evenodd" d="M10.8902 0.826715C10.8561 0.832877 10.8184 0.850114 10.8086 0.777344C10.8364 0.777344 10.8642 0.777344 10.8921 0.777344C10.906 0.789355 10.9104 0.800665 10.9053 0.81135C10.9002 0.821568 10.8952 0.826715 10.8902 0.826715Z" fill="#909090"/>
<path fill-rule="evenodd" clip-rule="evenodd" d="M10.8887 0.830581C10.89 0.812835 10.8907 0.795089 10.8905 0.777344C10.9183 0.777344 10.946 0.777344 10.9738 0.777344C10.9741 0.79593 10.9734 0.814433 10.9717 0.832852C10.944 0.832011 10.9163 0.831338 10.8887 0.830581Z" fill="#717171"/>
<path fill-rule="evenodd" clip-rule="evenodd" d="M22.1527 10.8235C22.146 10.7895 22.1342 10.754 22.2031 10.7424C22.2031 10.7703 22.2031 10.7981 22.2031 10.8259C22.1842 10.8457 22.1675 10.8439 22.1527 10.8235Z" fill="#747474"/>
<path fill-rule="evenodd" clip-rule="evenodd" d="M0.981428 10.8653C0.96285 10.8662 0.944359 10.867 0.925781 10.8678C0.925781 10.8399 0.925781 10.8121 0.925781 10.7843C0.942623 10.7668 0.960941 10.7652 0.980908 10.7823C0.981081 10.8099 0.981255 10.8376 0.981428 10.8653Z" fill="#616161"/>
<path fill-rule="evenodd" clip-rule="evenodd" d="M22.1518 11.9908C22.1423 11.9548 22.1441 11.9219 22.2031 11.905C22.2031 11.9329 22.2031 11.9607 22.2031 11.9885C22.1877 12.0063 22.1705 12.0071 22.1518 11.9908Z" fill="#555555"/>
<path fill-rule="evenodd" clip-rule="evenodd" d="M0.925781 11.9468C0.944301 11.9475 0.962908 11.9484 0.981428 11.9493C0.981255 11.9769 0.981168 12.0046 0.981081 12.0323C0.961082 12.0493 0.942736 12.0478 0.925781 12.0302C0.925781 12.0024 0.925781 11.9746 0.925781 11.9468Z" fill="#616161"/>
<path fill-rule="evenodd" clip-rule="evenodd" d="M22.151 11.9903C22.1677 11.9896 22.1843 11.9889 22.201 11.988C22.201 12.0158 22.201 12.0435 22.201 12.0713C22.1323 12.06 22.1438 12.0245 22.151 11.9903Z" fill="#757575"/>
<path fill-rule="evenodd" clip-rule="evenodd" d="M0.925781 12.0295C0.942212 12.0301 0.958642 12.0308 0.975072 12.0315C0.98197 12.0659 0.997005 12.1028 0.925781 12.1128C0.925781 12.085 0.925781 12.0573 0.925781 12.0295Z" fill="#818181"/>
<path fill-rule="evenodd" clip-rule="evenodd" d="M0.975047 10.7822C0.958677 10.7829 0.942229 10.7836 0.925781 10.7842C0.925781 10.7564 0.925781 10.7287 0.925781 10.7009C0.996926 10.7111 0.98203 10.7479 0.975047 10.7822Z" fill="#808080"/>
<path fill-rule="evenodd" clip-rule="evenodd" d="M12.3028 0.777344C12.293 0.850114 12.2553 0.832877 12.2212 0.826715C12.2064 0.81681 12.2013 0.806124 12.2056 0.794815C12.21 0.783193 12.2147 0.777344 12.2194 0.777344C12.2472 0.777344 12.275 0.777344 12.3028 0.777344Z" fill="#909090"/>
<path fill-rule="evenodd" clip-rule="evenodd" d="M12.2201 0.777428C12.2199 0.795258 12.2205 0.813003 12.2219 0.830665C12.1942 0.831422 12.1666 0.832263 12.1389 0.832852C12.1372 0.814349 12.1365 0.79593 12.1368 0.777344C12.1646 0.777428 12.1924 0.777428 12.2201 0.777428Z" fill="#717171"/>
<path fill-rule="evenodd" clip-rule="evenodd" d="M10.8086 22.0522C10.8184 21.9792 10.8559 21.9966 10.8902 22.0033C10.905 22.0131 10.9102 22.0236 10.9059 22.0348C10.9014 22.0463 10.8968 22.0522 10.8921 22.0522C10.8642 22.0522 10.8364 22.0522 10.8086 22.0522Z" fill="#939393"/>
<path fill-rule="evenodd" clip-rule="evenodd" d="M10.8905 22.0571C10.8903 22.0385 10.8896 22.0199 10.8887 22.0015C10.9163 22.0016 10.944 22.0018 10.9717 22.002C10.9868 22.0127 10.9921 22.0245 10.9878 22.0372C10.9833 22.0504 10.9788 22.0571 10.974 22.0571C10.9462 22.0571 10.9183 22.0571 10.8905 22.0571Z" fill="#737373"/>
<path fill-rule="evenodd" clip-rule="evenodd" d="M10.974 22.0536C10.9735 22.0367 10.9727 22.0198 10.9717 22.003C11.0076 21.9926 11.0405 21.9939 11.0572 22.0536C11.0295 22.0536 11.0017 22.0536 10.974 22.0536Z" fill="#565656"/>
<path fill-rule="evenodd" clip-rule="evenodd" d="M12.012 0.777344C12.0125 0.794667 12.0134 0.812072 12.0147 0.829313C11.9787 0.83859 11.947 0.83235 11.9287 0.777344C11.9565 0.777344 11.9842 0.777344 12.012 0.777344Z" fill="#363636"/>
<path fill-rule="evenodd" clip-rule="evenodd" d="M11.0967 0.829313C11.098 0.81199 11.0989 0.794749 11.0994 0.777344C11.1272 0.777344 11.1549 0.777344 11.1827 0.777344C11.1644 0.83235 11.1327 0.83859 11.0967 0.829313Z" fill="#363636"/>
<path fill-rule="evenodd" clip-rule="evenodd" d="M12.1411 22.0045C12.1402 22.0208 12.1392 22.0372 12.1379 22.0536C12.1102 22.0536 12.0824 22.0536 12.0547 22.0536C12.0715 21.9918 12.1048 21.9924 12.1411 22.0045Z" fill="#565656"/>
<path fill-rule="evenodd" clip-rule="evenodd" d="M22.1522 10.8232C22.1691 10.8235 22.1861 10.8244 22.203 10.8256C22.203 10.8534 22.203 10.8811 22.203 10.9089C22.1441 10.8919 22.1419 10.8593 22.1522 10.8232Z" fill="#555555"/>
<path fill-rule="evenodd" clip-rule="evenodd" d="M22.1846 10.5763C22.1396 10.3464 22.1611 10.1109 22.1264 9.88017C21.7288 7.23246 20.5023 5.03865 18.4843 3.29079C17.0692 2.0651 15.4301 1.28618 13.5941 0.914546C13.1934 0.833432 12.7875 0.830165 12.3856 0.777344C12.358 0.777344 12.3303 0.777344 12.3026 0.777344C12.2755 0.806357 12.2397 0.796446 12.2067 0.798771C12.1809 0.798716 12.1551 0.798716 12.1294 0.798771C12.0948 0.798716 12.0603 0.798771 12.0257 0.798771C11.9924 0.796335 11.9563 0.806634 11.9289 0.777344C11.6797 0.777344 11.4306 0.777344 11.1815 0.777344C11.1541 0.806634 11.118 0.796335 11.0847 0.798771C11.0502 0.798716 11.0157 0.798771 10.9811 0.798771C10.9553 0.798716 10.9295 0.798716 10.9037 0.798771C10.8706 0.796446 10.8349 0.806301 10.8078 0.777344C10.7524 0.777344 10.6971 0.777344 10.6417 0.777344C10.4598 0.818482 10.2723 0.800543 10.0899 0.825736C8.26275 1.07744 6.61105 1.76484 5.13975 2.87121C4.06295 3.68091 3.16294 4.66066 2.45876 5.81359C1.75564 6.96486 1.27172 8.1998 1.03563 9.53124C0.976609 9.86439 0.975613 10.2018 0.925837 10.5348C0.925837 10.5902 0.925837 10.6455 0.925837 10.7009C0.954407 10.7274 0.94516 10.7625 0.947209 10.7949C0.947209 10.8202 0.947209 10.8455 0.947209 10.8709C0.942115 10.9115 0.961106 10.9563 0.925781 10.9916C0.925781 11.2684 0.925781 11.5452 0.925781 11.822C0.961051 11.8572 0.94217 11.9019 0.947209 11.9425C0.947153 11.9678 0.947209 11.9932 0.947209 12.0185C0.945049 12.051 0.954351 12.0862 0.925781 12.1126C0.925781 12.168 0.925781 12.2234 0.925781 12.2787C0.963875 12.4748 0.947486 12.6759 0.974118 12.8719C1.1771 14.3672 1.6871 15.7526 2.4813 17.0341C3.0651 17.9761 3.7845 18.8018 4.6251 19.5229C5.81951 20.5476 7.17609 21.2688 8.68947 21.6975C9.32853 21.8786 9.979 21.9921 10.6416 22.0361C10.697 22.0361 10.7524 22.0361 10.8077 22.0361C10.8324 22.0089 10.8655 22.0162 10.8965 22.0147C10.9203 22.0147 10.9441 22.0147 10.968 22.0147C10.999 22.0163 11.0321 22.0089 11.0569 22.0361C11.1123 22.0361 11.1676 22.0361 11.223 22.0361C11.3061 22.0022 11.3891 22.0022 11.4722 22.0361C11.5275 22.0361 11.5829 22.0361 11.6383 22.0361C11.7075 22.0023 11.7767 22.0023 11.8459 22.0361C11.9151 22.0361 11.9843 22.0361 12.0535 22.0361C12.0791 22.0081 12.1132 22.0165 12.145 22.0147C12.1842 22.0189 12.2273 22.0024 12.2611 22.0361C12.3026 22.0361 12.3442 22.0361 12.3857 22.0361C13.0906 21.9981 13.782 21.8832 14.4613 21.6887C16.0583 21.2315 17.4753 20.4455 18.706 19.3352C19.4429 18.6705 20.0818 17.9167 20.607 17.0695C21.3294 15.9042 21.825 14.653 22.0715 13.3026C22.1336 12.9631 22.1351 12.6186 22.1846 12.2787C22.1846 12.2095 22.1846 12.1402 22.1846 12.071C22.1591 12.0481 22.1641 12.0173 22.1632 11.988C22.1642 11.9587 22.159 11.9279 22.1846 11.9049C22.1846 11.8634 22.1846 11.8219 22.1846 11.7804C22.1507 11.6973 22.1507 11.6142 22.1846 11.5312C22.1846 11.4481 22.1846 11.3651 22.1846 11.282C22.1507 11.199 22.1507 11.1159 22.1846 11.0329C22.1846 10.9914 22.1846 10.9498 22.1846 10.9083C22.1591 10.8854 22.1641 10.8546 22.1632 10.8253C22.1642 10.796 22.159 10.7652 22.1846 10.7423C22.1846 10.6871 22.1846 10.6317 22.1846 10.5763ZM11.5614 20.7072C6.44002 20.7123 2.25983 16.5366 2.25579 11.4116C2.25174 6.28849 6.42458 2.11095 11.551 2.10603C16.6738 2.10104 20.8518 6.27449 20.8566 11.4013C20.8614 16.5237 16.6876 20.7022 11.5614 20.7072Z" fill="black"/>
<path fill-rule="evenodd" clip-rule="evenodd" d="M11.1001 17.8529C9.14592 17.7874 7.27065 16.7755 5.99529 14.7085C5.73207 14.2819 5.90394 13.8084 6.3533 13.6754C6.64914 13.5878 6.93949 13.7077 7.12387 14.0133C7.51155 14.6556 8.0066 15.1945 8.6208 15.6272C10.9668 17.2799 14.3628 16.6001 15.8841 14.1706C15.9244 14.1062 15.9635 14.0411 16.0053 13.9778C16.2213 13.6499 16.6081 13.5535 16.9258 13.7477C17.2395 13.9395 17.3328 14.3326 17.1358 14.6725C16.7365 15.3615 16.2276 15.9582 15.6043 16.4548C14.4444 17.3788 13.0678 17.8529 11.1001 17.8529Z" fill="black"/>
<path fill-rule="evenodd" clip-rule="evenodd" d="M17.2527 8.78085C17.256 9.5193 16.6655 10.1166 15.9306 10.1179C15.2011 10.1193 14.5942 9.5131 14.5967 8.78533C14.5991 8.06283 15.1943 7.46513 15.9156 7.4612C16.656 7.45721 17.2493 8.04279 17.2527 8.78085Z" fill="black"/>
<path fill-rule="evenodd" clip-rule="evenodd" d="M5.85744 8.79706C5.85395 8.057 6.44146 7.46285 7.17847 7.46119C7.91094 7.45952 8.51539 8.06138 8.51346 8.79036C8.51152 9.51214 7.91587 10.1122 7.19541 10.1181C6.45929 10.1241 5.86093 9.53334 5.85744 8.79706Z" fill="black"/>
</g>
</svg>
