<svg width="20" height="20" viewBox="0 0 20 20" fill="none" xmlns="http://www.w3.org/2000/svg">
<path opacity="0.3" d="M4.5 3C4.20333 3 3.91332 3.08797 3.66664 3.2528C3.41997 3.41762 3.22771 3.65189 3.11418 3.92598C3.00065 4.20006 2.97094 4.50166 3.02882 4.79264C3.0867 5.08361 3.22956 5.35088 3.43934 5.56066C3.64912 5.77044 3.91639 5.9133 4.20736 5.97118C4.49834 6.02906 4.79994 5.99935 5.07403 5.88582C5.34811 5.77229 5.58238 5.58003 5.7472 5.33336C5.91203 5.08668 6 4.79667 6 4.5C6 4.10218 5.84196 3.72064 5.56066 3.43934C5.27936 3.15804 4.89782 3 4.5 3ZM4.5 3C4.20333 3 3.91332 3.08797 3.66664 3.2528C3.41997 3.41762 3.22771 3.65189 3.11418 3.92598C3.00065 4.20006 2.97094 4.50166 3.02882 4.79264C3.0867 5.08361 3.22956 5.35088 3.43934 5.56066C3.64912 5.77044 3.91639 5.9133 4.20736 5.97118C4.49834 6.02906 4.79994 5.99935 5.07403 5.88582C5.34811 5.77229 5.58238 5.58003 5.7472 5.33336C5.91203 5.08668 6 4.79667 6 4.5C6 4.10218 5.84196 3.72064 5.56066 3.43934C5.27936 3.15804 4.89782 3 4.5 3ZM19.41 9.58L10.41 0.580001C10.035 0.20808 9.52814 -0.000420824 9 6.37713e-07H2C1.46957 6.37713e-07 0.96086 0.210714 0.585787 0.585787C0.210714 0.96086 6.2793e-07 1.46957 6.2793e-07 2V9C-0.000208492 9.26391 0.0518167 9.52526 0.153077 9.76897C0.254338 10.0127 0.402832 10.2339 0.590001 10.42L1 10.82C1.63759 10.4382 2.34456 10.1867 3.08 10.08L2 9V2H9L18 11L11 18L9.92 16.92C9.81458 17.6558 9.56298 18.363 9.18 19L9.59 19.41C9.96335 19.7856 10.4704 19.9978 11 20C11.5296 19.9978 12.0366 19.7856 12.41 19.41L19.41 12.41C19.7856 12.0367 19.9978 11.5296 20 11C20.0002 10.7361 19.9482 10.4747 19.8469 10.231C19.7457 9.98732 19.5972 9.76606 19.41 9.58ZM4.5 3C4.20333 3 3.91332 3.08797 3.66664 3.2528C3.41997 3.41762 3.22771 3.65189 3.11418 3.92598C3.00065 4.20006 2.97094 4.50166 3.02882 4.79264C3.0867 5.08361 3.22956 5.35088 3.43934 5.56066C3.64912 5.77044 3.91639 5.9133 4.20736 5.97118C4.49834 6.02906 4.79994 5.99935 5.07403 5.88582C5.34811 5.77229 5.58238 5.58003 5.7472 5.33336C5.91203 5.08668 6 4.79667 6 4.5C6 4.10218 5.84196 3.72064 5.56066 3.43934C5.27936 3.15804 4.89782 3 4.5 3ZM8 17H5V20H3V17H6.2793e-07V15H3V12H5V15H8V17Z" fill="#030229"/>
</svg>
