<svg width="30" height="30" viewBox="0 0 30 30" fill="none" xmlns="http://www.w3.org/2000/svg">
<path d="M15.4587 24.1667C12.672 24.1667 10.417 21.9117 10.417 19.125V9.50004C10.417 7.47421 12.0578 5.83337 14.0837 5.83337C16.1095 5.83337 17.7503 7.47421 17.7503 9.50004V17.2917C17.7503 17.8995 17.5089 18.4824 17.0791 18.9122C16.6493 19.3419 16.0664 19.5834 15.4587 19.5834C14.8509 19.5834 14.268 19.3419 13.8382 18.9122C13.4084 18.4824 13.167 17.8995 13.167 17.2917V10.4167H15.0003V17.3742C15.0003 17.8784 15.917 17.8784 15.917 17.3742V9.50004C15.917 8.49171 15.092 7.66671 14.0837 7.66671C13.0753 7.66671 12.2503 8.49171 12.2503 9.50004V19.125C12.2503 20.8942 13.6895 22.3334 15.4587 22.3334C17.2278 22.3334 18.667 20.8942 18.667 19.125V10.4167H20.5003V19.125C20.5003 21.9117 18.2453 24.1667 15.4587 24.1667Z" fill="#8796AF"/>
</svg>
