<svg width="30" height="30" viewBox="0 0 30 30" fill="none" xmlns="http://www.w3.org/2000/svg">
<path d="M12.2502 18.667H14.0832V15.917H16.8332V14.083H14.0832V11.333H12.2502V14.083H9.50018V15.917H12.2502V18.667ZM7.66718 22.333C7.16218 22.333 6.73118 22.153 6.37218 21.795C6.19865 21.6274 6.0613 21.4261 5.96859 21.2033C5.87589 20.9806 5.82981 20.7412 5.83318 20.5V9.50002C5.83318 8.99602 6.01318 8.56402 6.37318 8.20602C6.73118 7.84602 7.16318 7.66602 7.66718 7.66602H18.6672C19.1712 7.66602 19.6022 7.84602 19.9622 8.20602C20.3212 8.56402 20.5002 8.99602 20.5002 9.50002V13.625L24.1672 9.95802V20.042L20.5002 16.375V20.5C20.5002 21.004 20.3202 21.436 19.9622 21.795C19.6022 22.154 19.1712 22.333 18.6672 22.333H7.66718ZM7.66718 20.5H18.6672V9.50002H7.66718V20.5Z" fill="#8796AF"/>
</svg>
