<svg width="23" height="25" viewBox="0 0 23 25" fill="none" xmlns="http://www.w3.org/2000/svg">
<rect x="0.0898438" y="0.0893555" width="22.3882" height="24.1097" fill="white" fill-opacity="0.01"/>
<mask id="mask0_1355_2219" style="mask-type:luminance" maskUnits="userSpaceOnUse" x="0" y="0" width="23" height="25">
<rect x="0.0898438" y="0.0893555" width="22.3882" height="24.1097" fill="white"/>
</mask>
<g mask="url(#mask0_1355_2219)">
<path fill-rule="evenodd" clip-rule="evenodd" d="M12.144 12.1543C12.144 15.8225 12.1444 19.4906 12.1422 23.1588C12.1422 23.3007 12.1374 23.4483 12.0995 23.5833C11.987 23.9829 11.6034 24.2351 11.1983 24.1949C10.7867 24.1541 10.4546 23.8108 10.4242 23.3929C10.4196 23.3304 10.4219 23.2674 10.4219 23.2046C10.4218 15.8325 10.4229 8.46026 10.419 1.08805C10.4188 0.685277 10.5366 0.362641 10.9105 0.177611C11.4498 -0.0891362 12.0876 0.278556 12.1399 0.880925C12.1483 0.978929 12.1438 1.07815 12.1438 1.17673C12.144 4.83593 12.144 8.49513 12.144 12.1543ZM3.53444 12.5752C3.53444 9.8757 3.53343 7.17623 3.53515 4.47676C3.53558 3.80458 4.08766 3.37376 4.67604 3.58505C5.02106 3.70902 5.20803 3.96608 5.25222 4.32681C5.26198 4.40645 5.25631 4.4881 5.25631 4.56881C5.25645 9.90497 5.25681 15.2411 5.25444 20.5773C5.25437 20.7277 5.24677 20.8852 5.20336 21.0273C5.08613 21.4116 4.70402 21.6516 4.30921 21.6116C3.90858 21.571 3.5772 21.2389 3.53896 20.8349C3.53056 20.7459 3.53458 20.6556 3.53458 20.566C3.53436 17.9024 3.53436 15.2388 3.53444 12.5752ZM17.3117 12.5746C17.3117 9.87515 17.3106 7.17568 17.3124 4.47621C17.3129 3.80425 17.8656 3.37357 18.4539 3.58521C18.7988 3.70933 18.9856 3.96661 19.0296 4.32741C19.0393 4.40705 19.0336 4.4887 19.0336 4.56934C19.0338 9.9055 19.0342 15.2417 19.0318 20.5778C19.0317 20.7283 19.024 20.8857 18.9806 21.0278C18.863 21.412 18.4806 21.6518 18.086 21.6116C17.6853 21.5708 17.3542 21.2384 17.3162 20.8343C17.3078 20.7453 17.3118 20.6551 17.3118 20.5654C17.3116 17.9018 17.3117 15.2383 17.3117 12.5746ZM6.97862 12.5474C6.97862 10.7089 6.97633 8.87045 6.97991 7.03207C6.9812 6.37352 7.56564 5.94635 8.14663 6.17644C8.47493 6.30651 8.65623 6.56013 8.69662 6.91067C8.7058 6.99038 8.70057 7.07196 8.70057 7.1526C8.70071 10.7667 8.70085 14.3809 8.69999 17.995C8.69999 18.1111 8.70387 18.2303 8.68084 18.3429C8.59245 18.7765 8.18515 19.0725 7.7526 19.0284C7.32005 18.9841 6.98386 18.6232 6.98113 18.1703C6.97453 17.0583 6.97869 15.9463 6.97862 14.8342C6.97848 14.0719 6.97855 13.3096 6.97862 12.5474ZM15.589 12.5745C15.589 14.4219 15.5883 16.2693 15.5896 18.1166C15.5899 18.5052 15.4248 18.7949 15.0723 18.9556C14.7374 19.1082 14.4221 19.0427 14.1486 18.8011C13.9322 18.6098 13.8641 18.3597 13.8649 18.0756C13.8693 16.6317 13.867 15.1879 13.867 13.744C13.867 11.511 13.8654 9.27793 13.868 7.04487C13.8688 6.37176 14.4607 5.94201 15.0492 6.17856C15.3925 6.31659 15.5882 6.63076 15.5885 7.05901C15.5898 8.89754 15.589 10.736 15.589 12.5745ZM1.8122 12.5877C1.8122 13.5472 1.81299 14.5067 1.81192 15.4662C1.81127 16.0579 1.46151 16.4522 0.944306 16.4483C0.438075 16.4445 0.0907584 16.0527 0.0905433 15.4793C0.0896106 13.5423 0.0896106 11.6054 0.0905433 9.6685C0.0908302 9.09289 0.435564 8.70439 0.944019 8.70045C1.46108 8.69643 1.81134 9.09102 1.81199 9.68235C1.81299 10.6508 1.8122 11.6192 1.8122 12.5877ZM20.7549 12.5605C20.7549 11.601 20.7542 10.6416 20.7552 9.68212C20.7558 9.08879 21.1032 8.69685 21.622 8.70044C22.1285 8.70396 22.4763 9.09525 22.4766 9.66871C22.4777 11.6056 22.4777 13.5425 22.4766 15.4795C22.4763 16.0535 22.1294 16.4444 21.6228 16.4483C21.1059 16.4523 20.7558 16.0572 20.7552 15.466C20.7543 14.4975 20.7549 13.529 20.7549 12.5605Z" fill="white"/>
</g>
</svg>
