<svg width="30" height="30" viewBox="0 0 30 30" fill="none" xmlns="http://www.w3.org/2000/svg">
<path fill-rule="evenodd" clip-rule="evenodd" d="M14.9905 5.83337C9.93051 5.83337 5.83301 9.94004 5.83301 15C5.83301 20.06 9.93051 24.1667 14.9905 24.1667C20.0597 24.1667 24.1663 20.06 24.1663 15C24.1663 9.94004 20.0597 5.83337 14.9905 5.83337ZM14.9997 22.3334C10.948 22.3334 7.66634 19.0517 7.66634 15C7.66634 10.9484 10.948 7.66671 14.9997 7.66671C19.0513 7.66671 22.333 10.9484 22.333 15C22.333 19.0517 19.0513 22.3334 14.9997 22.3334ZM18.208 14.0834C18.9688 14.0834 19.583 13.4692 19.583 12.7084C19.583 11.9475 18.9688 11.3334 18.208 11.3334C17.4472 11.3334 16.833 11.9475 16.833 12.7084C16.833 13.4692 17.4472 14.0834 18.208 14.0834ZM11.7913 14.0834C12.5522 14.0834 13.1663 13.4692 13.1663 12.7084C13.1663 11.9475 12.5522 11.3334 11.7913 11.3334C11.0305 11.3334 10.4163 11.9475 10.4163 12.7084C10.4163 13.4692 11.0305 14.0834 11.7913 14.0834ZM14.9997 20.0417C17.1355 20.0417 18.9505 18.7034 19.6838 16.8334H10.3155C11.0488 18.7034 12.8638 20.0417 14.9997 20.0417Z" fill="#8796AF"/>
</svg>
