<svg width="17" height="17" viewBox="0 0 17 17" fill="none" xmlns="http://www.w3.org/2000/svg">
<path opacity="0.3" d="M8.50039 1.54623C7.58745 1.54613 6.68344 1.72554 5.83996 2.07421C4.99649 2.42289 4.23008 2.934 3.5845 3.57837C2.93892 4.22273 2.42681 4.98772 2.07742 5.82966C1.72803 6.6716 1.54821 7.574 1.54821 8.48532C1.54821 10.3012 2.24489 11.9533 3.38901 13.1912L3.91385 13.7584L2.77593 14.8062L2.25109 14.2383C0.801216 12.6727 -0.00279165 10.6182 7.28329e-06 8.48609C7.28329e-06 3.7995 3.80548 0 8.49962 0C13.1945 0 17 3.79873 17 8.48454C17 10.7046 16.1462 12.7268 14.7489 14.2375L14.2241 14.8055L13.0862 13.7576L13.611 13.1897C14.7971 11.9095 15.4546 10.2291 15.4518 8.48532C15.4519 7.574 15.2722 6.67158 14.9229 5.82961C14.5736 4.98763 14.0616 4.22258 13.4161 3.57814C12.7705 2.9337 12.0042 2.42251 11.1608 2.07374C10.3173 1.72496 9.41333 1.54623 8.50039 1.54623ZM8.50039 5.02273C7.82354 5.02283 7.16137 5.21978 6.59484 5.58949C6.0283 5.9592 5.58194 6.48566 5.31031 7.10452C5.03867 7.72338 4.95354 8.40783 5.06531 9.07421C5.17708 9.74059 5.48091 10.36 5.93967 10.8568L6.46451 11.4248L5.32658 12.4726L4.80174 11.9046C4.13888 11.1871 3.69983 10.2922 3.53828 9.32957C3.37673 8.3669 3.49967 7.37809 3.89208 6.48406C4.28449 5.59002 4.92936 4.82949 5.74784 4.29545C6.56633 3.76141 7.52296 3.477 8.50078 3.477C9.4786 3.477 10.4352 3.76141 11.2537 4.29545C12.0722 4.82949 12.7171 5.59002 13.1095 6.48406C13.5019 7.37809 13.6248 8.3669 13.4633 9.32957C13.3017 10.2922 12.8627 11.1871 12.1998 11.9046L11.6742 12.4726L10.5363 11.4248L11.0611 10.8568C11.5199 10.36 11.8237 9.74059 11.9355 9.07421C12.0472 8.40783 11.9621 7.72338 11.6905 7.10452C11.4188 6.48566 10.9725 5.9592 10.4059 5.58949C9.83941 5.21978 9.17725 5.02283 8.50039 5.02273ZM6.95219 8.5C6.95219 8.09012 7.11531 7.69703 7.40565 7.4072C7.69599 7.11737 8.08978 6.95455 8.50039 6.95455C8.911 6.95455 9.30479 7.11737 9.59513 7.4072C9.88548 7.69703 10.0486 8.09012 10.0486 8.5C10.0486 8.90988 9.88548 9.30297 9.59513 9.5928C9.30479 9.88263 8.911 10.0455 8.50039 10.0455C8.08978 10.0455 7.69599 9.88263 7.40565 9.5928C7.11531 9.30297 6.95219 8.90988 6.95219 8.5ZM8.45936 11.5646L12.3213 17H4.59816L8.45936 11.5646ZM8.45936 14.236L7.59469 15.453H9.32481L8.45936 14.236Z" fill="#030229"/>
</svg>
