<svg width="14" height="14" viewBox="0 0 14 14" fill="none" xmlns="http://www.w3.org/2000/svg">
<g opacity="0.5">
<path fill-rule="evenodd" clip-rule="evenodd" d="M1.1665 6.22411C1.1665 3.43096 3.4067 1.16666 6.17013 1.16666C7.49717 1.16666 8.76986 1.69949 9.70822 2.64795C10.6466 3.59641 11.1737 4.88279 11.1737 6.22411C11.1737 9.01727 8.93355 11.2816 6.17013 11.2816C3.4067 11.2816 1.1665 9.01727 1.1665 6.22411ZM11.091 10.2983L12.5812 11.5012H12.6071C12.9085 11.806 12.9085 12.3 12.6071 12.6048C12.3056 12.9095 11.8167 12.9095 11.5153 12.6048L10.2786 11.1874C10.1617 11.0697 10.096 10.9097 10.096 10.7429C10.096 10.576 10.1617 10.4161 10.2786 10.2983C10.5041 10.0744 10.8655 10.0744 11.091 10.2983Z" fill="white"/>
</g>
</svg>
